<svg xmlns="http://www.w3.org/2000/svg" width="512" height="512" viewBox="0 0 512 512">
  <defs>
    <linearGradient id="bgGrad" x1="0" y1="0" x2="0" y2="1">
      <stop offset="0%" stop-color="#256C4A"/>
      <stop offset="100%" stop-color="#1B5E3F"/>
    </linearGradient>
    <linearGradient id="leafGrad" x1="0" y1="0" x2="0" y2="1">
      <stop offset="0%" stop-color="#FFB300"/>
      <stop offset="100%" stop-color="#F9A825"/>
    </linearGradient>
    <radialGradient id="hl" cx="0.3" cy="0.25" r="0.85">
      <stop offset="0%" stop-color="#FFFFFF" stop-opacity="0.18"/>
      <stop offset="100%" stop-color="#FFFFFF" stop-opacity="0"/>
    </radialGradient>
  </defs>

  <rect width="512" height="512" fill="url(#bgGrad)"/>
  <rect width="512" height="512" fill="url(#hl)"/>

  <g transform="translate(256, 256) scale(0.78) translate(-256, -256)">
    <g stroke-linecap="round" fill="none">
      <path d="M 75 408 C 140 386, 200 430, 256 408 C 312 386, 372 430, 437 408"
            stroke="#80CBC4" stroke-width="14" opacity="0.95"/>
      <path d="M 95 450 C 155 428, 215 472, 271 450 C 327 428, 367 472, 417 450"
            stroke="#4DB6AC" stroke-width="11" opacity="0.85"/>
    </g>
    <g transform="translate(256, 290)">
      <path d="M -3 -3 L -5 88 Q 0 100, 5 88 L 3 -3 Z" fill="#F9A825"/>
      <path d="M 0 0
               L -175 -55
               C -240 -110, -228 -208, -130 -238
               C -75 -253, -32 -250, -10 -228
               L 0 -208
               L 10 -228
               C 32 -250, 75 -253, 130 -238
               C 228 -208, 240 -110, 175 -55
               Z"
            fill="url(#leafGrad)"/>
    </g>
  </g>
</svg>
